<svg xmlns="http://www.w3.org/2000/svg" width="95.784" height="95.244" viewBox="0 0 95.784 95.244">
  <g id="Group_2705" data-name="Group 2705" transform="translate(0.438 0.501)">
    <path id="Path_3937" data-name="Path 3937" d="M266.765,484.571a1.354,1.354,0,1,1-.095-2.707c1.353-.095,2.658-.245,3.868-.445a1.354,1.354,0,0,1,.441,2.671c-1.292.214-2.678.372-4.118.474a.572.572,0,0,1-.1.007Z" transform="translate(-216.105 -389.949)" fill="#fff"/>
    <path id="Path_3938" data-name="Path 3938" d="M54.533,108.086a1.353,1.353,0,0,1-.2-.013,47.251,47.251,0,0,1-40.472-45.25c-.015-.575-.028-1.088-.028-1.614A47.577,47.577,0,0,1,54.394,14.329a48.422,48.422,0,0,1,10.452-.352A47.345,47.345,0,0,1,90.5,98.423a1.353,1.353,0,0,1-1.67-2.13,44.653,44.653,0,0,0-24.2-79.609,45.7,45.7,0,0,0-9.853.329A44.855,44.855,0,0,0,16.545,61.207c0,.5.012.993.026,1.5a44.554,44.554,0,0,0,38.163,42.689,1.353,1.353,0,0,1-.194,2.693Z" transform="translate(-13.776 -13.843)" fill="#fff" stroke="#fff" stroke-width="1"/>
    <path id="Path_3939" data-name="Path 3939" d="M334.228,465.018a1.353,1.353,0,0,1-.475-2.62c1.142-.43,2.313-.937,3.581-1.548a1.353,1.353,0,0,1,1.261,2.4c-.028.015-.056.028-.085.041-1.341.648-2.586,1.187-3.805,1.646a1.353,1.353,0,0,1-.476.087Z" transform="translate(-270.412 -373.292)" fill="#fff"/>
    <path id="Path_3940" data-name="Path 3940" d="M275.447,39.42a5.216,5.216,0,0,1-1.328-.171,5.766,5.766,0,0,1-4.155-6.029c.8-10.446-2.615-16.617-2.65-16.671a1.356,1.356,0,1,1,2.349-1.353h0c.158.271,3.869,6.887,3,18.224a2.887,2.887,0,0,0,5.3,1.939l4.4-6.03a15.867,15.867,0,0,1,6.672-5.386,11.773,11.773,0,0,1,2.726-.792,1.354,1.354,0,1,1,.4,2.678h0a9,9,0,0,0-2.085.614,13.156,13.156,0,0,0-5.521,4.48l-4.4,6.03a5.891,5.891,0,0,1-4.708,2.467Z" transform="translate(-217.529 -14.385)" fill="#fff"/>
    <path id="Path_3941" data-name="Path 3941" d="M350.683,158.5a1.287,1.287,0,0,1-.176-.011c-14.334-1.862-12.908-14.966-12.89-15.1a12.776,12.776,0,0,0-2.707-10,12.337,12.337,0,0,0-2.774-2.349,17.476,17.476,0,0,1-2.242-1.8,13.8,13.8,0,0,1-4.226-9.067l-.092-1.231a9.226,9.226,0,0,1,8.887-9.473c8.63-.575,12.108-6.361,12.253-6.61a1.353,1.353,0,0,1,2.344,1.353,18.014,18.014,0,0,1-14.422,7.96c-.652.046-6.361.621-6.361,6.669l.088,1.131a11.115,11.115,0,0,0,3.383,7.308,14.687,14.687,0,0,0,1.895,1.518,15.054,15.054,0,0,1,3.367,2.891,15.407,15.407,0,0,1,3.282,12.044c-.047.415-1.083,10.563,10.556,12.076a1.353,1.353,0,0,1-.173,2.694Z" transform="translate(-264.537 -84.92)" fill="#fff"/>
    <path id="Path_3942" data-name="Path 3942" d="M55.751,96.547A9.887,9.887,0,0,1,46.8,90.6c-.26-.367-1.416-1.988-2.977-3.88A18.34,18.34,0,0,0,31.251,80.29c-5.739-.552-7.579-3.368-8.106-5.634a1.449,1.449,0,0,1-.035-.315c0-.042-.027-4.543-2.651-6.863a6.52,6.52,0,0,0-5.329-1.314,1.353,1.353,0,1,1-.326-2.681,9.081,9.081,0,0,1,7.469,1.983c3.224,2.862,3.519,7.691,3.55,8.708.529,1.961,2.445,3.112,5.7,3.425a21.033,21.033,0,0,1,14.407,7.409c1.838,2.234,3.113,4.06,3.16,4.134a1.355,1.355,0,0,1,.1.172c2.807,5.684,7.672,4.432,7.878,4.375a1.422,1.422,0,0,1,.479-.042c.677.066.886-.174.973-.271.74-.853.562-3.448.21-4.934-1.95-6.618,1.707-9.542,2.605-10.15l4.019-4.018a5.914,5.914,0,0,0,1.845-4.512,3.747,3.747,0,0,0-2.962-3.532,1.384,1.384,0,0,1-.62-.3c-3.142-2.667-11.9-3.259-15.005-3.261a1.407,1.407,0,0,1-.238-.02c-4.313-.777-7.424-2.487-9.248-5.084a6.336,6.336,0,0,1-1-5.007,6.853,6.853,0,0,1,3.167-4.436,4.015,4.015,0,0,0,1.935-3.19l.135-2.19a1.691,1.691,0,0,1,.031-.219C44.655,37.04,50.808,31,51.067,30.752a1.35,1.35,0,0,1,.271-.2c3.448-1.98,2.678-7.466,2.67-7.522L53,17.989a1.353,1.353,0,0,1,2.654-.53l1.023,5.1c.056.364,1.022,7.293-3.826,10.238-.8.812-5.739,5.912-6.8,10.238l-.135,2.075a6.722,6.722,0,0,1-3.248,5.337,4.136,4.136,0,0,0-1.911,2.677,3.654,3.654,0,0,0,.567,2.892c1.383,1.972,3.873,3.3,7.4,3.956,1.34.011,11.856.212,16.363,3.686a6.481,6.481,0,0,1,4.8,5.926,8.6,8.6,0,0,1-2.632,6.61l-4.114,4.111a1.348,1.348,0,0,1-.29.221c-.112.066-3.068,1.923-1.513,7.209.219.9,1.129,5.2-.774,7.4a3.629,3.629,0,0,1-3.022,1.218,8.067,8.067,0,0,1-1.788.191Z" transform="translate(-13.524 -15.891)" fill="#fff"/>
  </g>
</svg>
