<svg id="Group_2704" data-name="Group 2704" xmlns="http://www.w3.org/2000/svg" width="100.144" height="100.144" viewBox="0 0 100.144 100.144">
  <path id="Path_3933" data-name="Path 3933" d="M91.929,35.207H64.42c.087-.965.135-1.942.135-2.93A32.285,32.285,0,0,0,16.149,4.312,1.956,1.956,0,1,0,18.107,7.7a28.368,28.368,0,1,1,14.17,52.944A28.049,28.049,0,0,1,14.49,54.371a1.957,1.957,0,0,0-1.8-.345L7.5,55.383l2.034-4.47a1.955,1.955,0,0,0-.2-1.961A28.381,28.381,0,0,1,7.719,18.073a1.956,1.956,0,0,0-3.385-1.962,32.3,32.3,0,0,0,1.172,34.2L2.232,57.506a1.955,1.955,0,0,0,2.275,2.7l8.318-2.174A32.271,32.271,0,0,0,36.772,64.24V81.367a8.224,8.224,0,0,0,8.214,8.215H72.65L85.019,99.7a1.956,1.956,0,0,0,3.194-1.514V89.582h3.716a8.224,8.224,0,0,0,8.215-8.215V43.422A8.224,8.224,0,0,0,91.929,35.207Zm4.3,46.16a4.308,4.308,0,0,1-4.3,4.3H86.257A1.956,1.956,0,0,0,84.3,87.626V94.06l-9.661-7.9c-.532-.486-1-.486-2.046-.486H44.986a4.308,4.308,0,0,1-4.3-4.3V63.441A32.386,32.386,0,0,0,63.822,39.119H91.929a4.307,4.307,0,0,1,4.3,4.3Z" fill="#fff"/>
  <path id="Path_3934" data-name="Path 3934" d="M309.365,269.353a1.955,1.955,0,0,0-.833-3.724h-.8l-6.308-14.376a1.956,1.956,0,0,0-3.583,0l-6.308,14.376h-.8a1.955,1.955,0,0,0-.833,3.724l-2.349,5.354a1.956,1.956,0,1,0,3.582,1.572l2.957-6.738h11.087l2.957,6.738a1.956,1.956,0,1,0,3.582-1.572Zm-13.56-3.724,3.827-8.722,3.827,8.722Z" transform="translate(-231.174 -201.167)" fill="#fff"/>
  <path id="Path_3935" data-name="Path 3935" d="M47.358,49.31a1.956,1.956,0,1,0-1.383-.573A1.974,1.974,0,0,0,47.358,49.31Z" transform="translate(-36.522 -36.518)" fill="#fff"/>
  <path id="Path_3936" data-name="Path 3936" d="M101.149,112.873a1.956,1.956,0,1,0,1.881,3.431,22.4,22.4,0,0,0,9.68-10.5,22.4,22.4,0,0,0,9.681,10.5,1.956,1.956,0,1,0,1.881-3.431,18.5,18.5,0,0,1-9.4-13.459h8.684a1.956,1.956,0,0,0,0-3.912h-8.893V87.351a1.956,1.956,0,0,0-3.912,0V95.5h-7.066a1.956,1.956,0,0,0,0,3.912h6.857A18.5,18.5,0,0,1,101.149,112.873Z" transform="translate(-80.548 -68.692)" fill="#fff"/>
</svg>
