<svg xmlns="http://www.w3.org/2000/svg" width="93.885" height="93.886" viewBox="0 0 93.885 93.886">
  <g id="Group_2707" data-name="Group 2707" transform="translate(-241 -1205.723)">
    <g id="Group_2703" data-name="Group 2703" transform="translate(241 1205.723)">
      <path id="Path_3923" data-name="Path 3923" d="M217.389,170.777A9.389,9.389,0,1,0,208,161.389,9.388,9.388,0,0,0,217.389,170.777Zm0-15.648a6.259,6.259,0,1,1-6.259,6.259A6.259,6.259,0,0,1,217.389,155.13Z" transform="translate(-170.446 -125.399)" fill="#fff"/>
      <path id="Path_3924" data-name="Path 3924" d="M249.565,182.259h1.565a1.565,1.565,0,0,0,0-3.13v-1.565a1.565,1.565,0,1,0-3.13,0v3.13A1.565,1.565,0,0,0,249.565,182.259Z" transform="translate(-202.622 -144.705)" fill="#fff"/>
      <path id="Path_3925" data-name="Path 3925" d="M217.036,271.824v-6.259A1.565,1.565,0,0,0,215.471,264H193.565A1.565,1.565,0,0,0,192,265.565v6.259a1.565,1.565,0,0,0,1.565,1.565h21.907A1.565,1.565,0,0,0,217.036,271.824Zm-3.13-1.565H195.13v-3.13h18.777Z" transform="translate(-157.575 -215.492)" fill="#fff"/>
      <path id="Path_3926" data-name="Path 3926" d="M65.565,199.648H78.083a1.565,1.565,0,1,0,0-3.13V185.565A1.565,1.565,0,0,0,76.518,184H67.13a1.565,1.565,0,0,0-1.565,1.565v10.953a1.565,1.565,0,1,0,0,3.13Zm3.13-12.518h6.259v9.389H68.694Z" transform="translate(-54.611 -151.14)" fill="#fff"/>
      <path id="Path_3927" data-name="Path 3927" d="M78.083,292.518V281.565A1.565,1.565,0,0,0,76.518,280H67.13a1.565,1.565,0,0,0-1.565,1.565v10.953a1.565,1.565,0,0,0,0,3.13H78.083a1.565,1.565,0,0,0,0-3.13Zm-9.389-9.389h6.259v9.389H68.694Z" transform="translate(-54.611 -228.363)" fill="#fff"/>
      <path id="Path_3928" data-name="Path 3928" d="M78.083,388.518V377.565A1.565,1.565,0,0,0,76.518,376H67.13a1.565,1.565,0,0,0-1.565,1.565v10.953a1.565,1.565,0,0,0,0,3.13H78.083a1.565,1.565,0,0,0,0-3.13Zm-9.389-9.389h6.259v9.389H68.694Z" transform="translate(-54.611 -305.586)" fill="#fff"/>
      <path id="Path_3929" data-name="Path 3929" d="M369.565,199.648h12.518a1.565,1.565,0,1,0,0-3.13V185.565A1.565,1.565,0,0,0,380.518,184H371.13a1.565,1.565,0,0,0-1.565,1.565v10.953a1.565,1.565,0,1,0,0,3.13Zm3.13-12.518h6.259v9.389h-6.259Z" transform="translate(-299.151 -151.14)" fill="#fff"/>
      <path id="Path_3930" data-name="Path 3930" d="M369.565,295.648h12.518a1.565,1.565,0,0,0,0-3.13V281.565A1.565,1.565,0,0,0,380.518,280H371.13a1.565,1.565,0,0,0-1.565,1.565v10.953a1.565,1.565,0,0,0,0,3.13Zm3.13-12.518h6.259v9.389h-6.259Z" transform="translate(-299.151 -228.363)" fill="#fff"/>
      <path id="Path_3931" data-name="Path 3931" d="M369.565,391.648h12.518a1.565,1.565,0,0,0,0-3.13V377.565A1.565,1.565,0,0,0,380.518,376H371.13a1.565,1.565,0,0,0-1.565,1.565v10.953a1.565,1.565,0,0,0,0,3.13Zm3.13-12.518h6.259v9.389h-6.259Z" transform="translate(-299.151 -305.586)" fill="#fff"/>
      <path id="Path_3932" data-name="Path 3932" d="M108.321,44.164a1.565,1.565,0,1,0,0-3.13H80.664L64.507,29.285V25.67l7.567,1.261A1.565,1.565,0,0,0,73.9,25.387V19.128a1.565,1.565,0,0,0-1.308-1.543L63.2,16.02v0a1.556,1.556,0,0,0-1.822,1.542V29.285L45.222,41.035H17.565a1.565,1.565,0,1,0,0,3.13H19.13v62.59H17.565a1.565,1.565,0,0,0,0,3.13h90.756a1.565,1.565,0,1,0,0-3.13h-1.565V44.164Zm-46.943,62.59H55.119V89.542a7.837,7.837,0,0,1,6.259-7.666Zm3.13-24.879a7.837,7.837,0,0,1,6.259,7.666v17.212H64.507Zm-1.565-3.287A10.966,10.966,0,0,0,51.989,89.542v17.212H47.3V43.4l15.648-11.38L78.59,43.4v63.358H73.9V89.542A10.966,10.966,0,0,0,62.943,78.589ZM70.766,23.54,64.507,22.5V19.411l6.259,1.043ZM22.259,44.164H44.166v62.59H22.259Zm81.367,62.59H81.72V44.164h21.907Z" transform="translate(-16 -15.998)" fill="#fff"/>
    </g>
  </g>
</svg>
